Coordinates
version=1
nRows=14
nColumns=24
inDegrees=yes

Units are S.I. units (second, meters, Newtons, ...)
Angles are in degrees.

endheader
time	pelvis_tilt	pelvis_list	pelvis_rotation	pelvis_tx	pelvis_ty	pelvis_tz	hip_flexion_r	hip_adduction_r	hip_rotation_r	knee_angle_r	ankle_angle_r	subtalar_angle_r	mtp_angle_r	hip_flexion_l	hip_adduction_l	hip_rotation_l	knee_angle_l	ankle_angle_l	subtalar_angle_l	mtp_angle_l	lumbar_extension	lumbar_bending	lumbar_rotation
      4.10000000	      2.60830420	     -7.17920978	     -9.05933968	     -2.81717908	      0.87088680	      0.27661770	    -20.07563002	      8.66877020	      9.17172064	    -11.82989526	     20.81604351	      1.62908401	      0.00000000	     19.32060532	     -6.60949403	     -6.83153047	      2.77112875	     -3.26306653	      5.14755443	      0.00000000	    -24.06465861	      6.53230563	      8.54947651
      4.11000000	      2.75221327	     -6.66181004	     -8.84758058	     -2.80269461	      0.87026078	      0.27551890	    -20.32716112	      8.01038047	      8.74390848	    -13.23769907	     20.35519713	      2.01392869	      0.00000000	     19.38562334	     -5.87920228	     -6.88446045	      1.29031638	     -4.13054612	      3.22504865	      0.00000000	    -23.93144036	      5.96480093	      8.10649644
      4.12000000	      2.83089338	     -6.08422302	     -8.55563715	     -2.78803916	      0.86972270	      0.27430050	    -20.38136118	      7.35055900	      8.21199546	    -14.85784984	     19.65329127	      2.29949152	      0.00000000	     19.49084658	     -5.06413374	     -6.28927131	     -0.27948415	     -5.42431776	      0.49698736	      0.00000000	    -23.68351949	      5.37240736	      7.57367077
      4.13000000	      2.96763765	     -5.39607785	     -8.21644237	     -2.77329504	      0.86952317	      0.27301224	    -20.35675973	      6.61389243	      7.66619990	    -16.68914081	     18.66092962	      2.44358578	      0.00000000	     19.51237336	     -4.09184561	     -5.31113600	     -1.89104678	     -6.86962929	     -2.57068531	      0.00000000	    -23.48237841	      4.65061377	      6.98170679
      4.14000000	      3.09384308	     -4.61660667	     -7.80942024	     -2.75860209	      0.86962756	      0.27164561	    -20.13407558	      5.84229662	      7.04211756	    -18.79839002	     17.30457328	      2.44269695	      0.00000000	     19.58589877	     -2.98256687	     -4.12331481	     -3.61342669	     -8.07026018	     -5.44552137	      0.00000000	    -23.27296454	      3.83951178	      6.32466930
      4.15000000	      3.28772343	     -3.74791942	     -7.32851424	     -2.74405170	      0.87017589	      0.27022429	    -19.78135348	      5.02565607	      6.32793250	    -21.19405953	     15.55231471	      2.33096413	      0.00000000	     19.65310473	     -1.73459129	     -3.00265156	     -5.48501074	     -8.64650654	     -7.64337276	      0.00000000	    -23.17072827	      2.92352799	      5.60103782
      4.16000000	      3.55971990	     -2.79711586	     -6.82317053	     -2.72974851	      0.87120084	      0.26887054	    -19.27786553	      4.15378773	      5.56168077	    -23.91796799	     13.40299633	      2.09213119	      0.00000000	     19.75621638	     -0.41504498	     -2.58302478	     -7.60245772	     -8.16533164	     -8.34695930	      0.00000000	    -23.21476316	      1.88493690	      4.87074511
      4.17000000	      3.80141741	     -1.88408206	     -6.23683245	     -2.71568907	      0.87245449	      0.26745424	    -18.52179160	      3.35379543	      4.66595781	    -26.95112719	     10.94867422	      1.89582414	      0.00000000	     19.83383410	      0.90270519	     -1.94728446	     -9.68610471	     -7.19942833	     -8.85025503	      0.00000000	    -23.27996356	      0.92051766	      4.10437915
      4.18000000	      3.90823614	     -1.07640559	     -5.61433723	     -2.70197170	      0.87377714	      0.26611520	    -17.39972364	      2.70002656	      3.79484282	    -30.27820348	      8.26293470	      1.61062065	      0.00000000	     20.09403487	      2.03627111	     -1.98457439	    -11.89671618	     -5.30914391	     -8.03020798	      0.00000000	    -23.26682689	      0.09350813	      3.35440940
      4.19000000	      4.01680351	     -0.39385429	     -4.99270871	     -2.68855314	      0.87531924	      0.26480484	    -16.08743030	      2.14910613	      2.93709932	    -33.80571646	      5.49762466	      1.32535258	      0.00000000	     20.15728407	      3.01118383	     -2.09230990	    -13.81610699	     -3.17404924	     -6.83402717	      0.00000000	    -23.33657818	     -0.57814264	      2.65634199
      4.20000000	      4.13230540	      0.27656503	     -4.51748883	     -2.67539459	      0.87704978	      0.26366574	    -14.57692346	      1.52380148	      2.17967426	    -37.51060986	      2.99235654	      0.99311524	      0.00000000	     19.97128247	      3.88383190	     -2.52905150	    -15.32157018	     -1.03523532	     -5.37127748	      0.00000000	    -23.46532233	     -1.26703490	      2.10408006
      4.21000000	      4.18281631	      0.86945485	     -4.17257376	     -2.66249527	      0.87886577	      0.26261139	    -12.83887914	      0.91723201	      1.60506226	    -41.28769933	      0.87038965	      0.65140014	      0.00000000	     19.56393377	      4.63084902	     -2.95243333	    -16.30616175	      0.85530447	     -4.14707082	      0.00000000	    -23.56694279	     -1.86533889	      1.61906864
      4.22000000	      4.14109921	      1.39768176	     -3.98984612	     -2.64984828	      0.88071969	      0.26164315	    -10.86492630	      0.30925705	      1.22116060	    -45.06116308	     -0.74617691	      0.21122852	      0.00000000	     18.99076725	      5.26709758	     -3.39002189	    -16.79411785	      2.41204652	     -3.16630480	      0.00000000	    -23.59367891	     -2.38681058	      1.27442545
      4.23000000	      4.02695661	      1.88060023	     -3.99414581	     -2.63741637	      0.88262337	      0.26079451	     -8.71338705	     -0.30280816	      1.07283247	    -48.73458413	     -1.77781303	     -0.35031388	      0.00000000	     18.26535731	      5.82298666	     -3.83644841	    -16.83584754	      3.64648641	     -2.46793812	      0.00000000	    -23.54578952	     -2.86688065	      1.09078476
